<svg width="100%" height="100%" viewBox="0 0 496 554" version="1.1" xmlns="http://www.w3.org/2000/svg" xmlns:xlink="http://www.w3.org/1999/xlink" xml:space="preserve" xmlns:serif="http://www.serif.com/" style="fill-rule:evenodd;clip-rule:evenodd;stroke-linejoin:round;stroke-miterlimit:2;">
    <g id="Layer-2" serif:id="Layer 2" transform="matrix(4.16667,0,0,4.16667,0,0)">
        <g transform="matrix(0,-1,-1,0,81.9214,59.6228)">
            <path d="M-36.958,-36.958C-56.968,-36.958 -73.188,-20.413 -73.188,-0.002C-73.188,20.411 -56.968,36.958 -36.958,36.958C-16.951,36.958 -0.728,20.411 -0.728,-0.002C-0.728,-20.413 -16.951,-36.958 -36.958,-36.958" style="fill:rgb(64,166,156);fill-rule:nonzero;"/>
        </g>
        <g transform="matrix(0,-1,-1,0,81.9214,72.8998)">
            <path d="M-23.681,-23.683C-36.501,-23.683 -46.897,-13.079 -46.897,-0.002C-46.897,13.078 -36.501,23.681 -23.681,23.681C-10.86,23.681 -0.467,13.078 -0.467,-0.002C-0.467,-13.079 -10.86,-23.683 -23.681,-23.683" style="fill:white;fill-rule:nonzero;"/>
        </g>
        <g transform="matrix(1,0,0,1,73.9132,36.0991)">
            <path d="M0,20.697C0,20.653 0.003,20.609 0.003,20.565C0.003,20.521 0,20.477 0,20.433L0,-36.099L-13.258,-36.099L-13.258,-7.232C-19.674,-12.493 -27.935,-15.664 -36.954,-15.664C-57.366,-15.664 -73.913,0.555 -73.913,20.565C-73.913,40.577 -57.366,56.796 -36.954,56.796C-16.733,56.796 -0.314,40.874 -0.011,21.118L0,21.118L0,20.697Z" style="fill:#fc4e53;fill-rule:nonzero;"/>
        </g>
        <g transform="matrix(0,-1,-1,0,36.9596,32.9825)">
            <path d="M-23.682,-23.681C-36.503,-23.681 -46.896,-13.079 -46.896,0C-46.896,13.081 -36.503,23.682 -23.682,23.682C-10.862,23.682 -0.466,13.081 -0.466,0C-0.466,-13.079 -10.862,-23.681 -23.682,-23.681" style="fill:white;fill-rule:nonzero;"/>
        </g>
    </g>
</svg>
